:version 1.10
:name ASF
:units
  mass 1
  length 1
  angle deg
:documentation
  ASF file generated by Kaydara
:root
  axis xyz
  order  tx ty tz rx ry rz
  position 0 0 0
  orientation 0 0 0
:bonedata
  begin
    id 1
    name RightUpLegDummy
    direction -0.718183 -0.695806 0.00816078
    length 4.904
    axis 0 0 0 xyz
  end
  begin
    id 2
    name RightUpLeg
    direction -0.0736652 -0.994202 0.0783343
    length 17.4976
    axis -2.72909 -3.00389 -4.00133 xyz
    dof rx ry rz
  end
  begin
    id 3
    name RightLeg
    direction -0.0389037 -0.994596 -0.0962598
    length 16.5821
    axis 3.95836 -18.5909 -4.46993 xyz
    dof rx ry rz
  end
  begin
    id 4
    name RightFoot
    direction -0.311643 -0.412678 0.855906
    length 3.77069
    axis -1.99483 -18.8351 -3.27644 xyz
    dof rx ry rz
  end
  begin
    id 5
    name RightToes
    direction -0.317852 0.0389852 0.947339
    length 3.85082
    axis -2.00228 -18.1713 -3.25211 xyz
    dof rx ry rz
  end
  begin
    id 6
    name SpineDummy
    direction 8.3039e-015 1 4.44677e-016
    length 4.6813
    axis 0 0 0 xyz
  end
  begin
    id 7
    name Spine
    direction -0.000262373 0.999988 0.00493267
    length 10.1015
    axis -0.00246081 0.00062579 0.0150362 xyz
    dof rx ry rz
  end
  begin
    id 8
    name Spine1
    direction 0 0 0
    length 0
    axis -0.00349562 0.000650293 0.0196666 xyz
    dof rx ry rz
  end
  begin
    id 9
    name HEadDummy
    direction -0.000343232 0.999999 0.00123745
    length 3.43865
    axis -0.00349562 0.000650293 0.0196666 xyz
  end
  begin
    id 10
    name HEad
    direction -0.0461221 0.980933 0.188796
    length 5.12695
    axis -0.00351404 -7.04812 0.0199272 xyz
    dof rx ry rz
  end
  begin
    id 11
    name LeftShoulder1Dummy
    direction 0.998904 -0.0399089 -0.0244534
    length 3.5433
    axis -0.00349562 0.000650293 0.0196666 xyz
  end
  begin
    id 12
    name LeftShoulder1
    direction 0.99951 1.64443e-005 0.0312999
    length 4.05031
    axis -0.00349562 0.000650293 0.0196666 xyz
    dof rx ry rz
  end
  begin
    id 13
    name LeftArm
    direction 0.984791 0.0515299 0.165927
    length 12.9126
    axis -64.823 -10.7743 5.20463 xyz
    dof rx ry rz
  end
  begin
    id 14
    name LeftForeArm
    direction 0.984968 0.0534808 0.16425
    length 10.8596
    axis -30.0462 -7.70601 1.87451 xyz
    dof rx ry rz
  end
  begin
    id 15
    name LeftHand
    direction 0.975871 0.0289682 0.216418
    length 6.62295
    axis -20.1348 -6.98077 1.86072 xyz
    dof rx ry rz
  end
  begin
    id 16
    name RightShoulderDummy
    direction -0.998877 -0.0405946 -0.0244307
    length 3.5433
    axis -0.00349562 0.000650293 0.0196666 xyz
  end
  begin
    id 17
    name RightShoulder
    direction -0.998933 -0.0249743 -0.0388558
    length 4.05031
    axis -0.0205316 -4.02113 1.41395 xyz
    dof rx ry rz
  end
  begin
    id 18
    name RightArm
    direction -0.997559 0.068664 0.0127103
    length 12.9638
    axis -67.3882 1.84188 -6.15987 xyz
    dof rx ry rz
  end
  begin
    id 19
    name RightForeArm
    direction -0.991508 0.0912848 0.0926241
    length 10.8312
    axis -22.1975 3.41087 -4.28711 xyz
    dof rx ry rz
  end
  begin
    id 20
    name RightHand
    direction -0.989262 0.0600788 0.133232
    length 6.57864
    axis -12.2911 2.17515 -4.39675 xyz
    dof rx ry rz
  end
  begin
    id 21
    name LeftUpLegDummy
    direction 0.718183 -0.695806 0.00816078
    length 4.904
    axis 0 0 0 xyz
  end
  begin
    id 22
    name LeftUpLeg
    direction 0.0831398 -0.99469 0.0606531
    length 17.4976
    axis -1.71016 2.29552 4.63832 xyz
    dof rx ry rz
  end
  begin
    id 23
    name LeftLeg
    direction 0.0498442 -0.991778 -0.117862
    length 16.5821
    axis 5.13757 15.5727 5.13348 xyz
    dof rx ry rz
  end
  begin
    id 24
    name LeftFoot
    direction 0.269026 -0.433896 0.85986
    length 3.77069
    axis -0.576502 15.6961 4.10267 xyz
    dof rx ry rz
  end
  begin
    id 25
    name LeftToes
    direction 0.277311 0.0251143 0.960452
    length 3.85048
    axis -0.576502 15.6961 4.10267 xyz
    dof rx ry rz
  end
:hierarchy
  begin
    root RightUpLegDummy SpineDummy LeftUpLegDummy
    RightUpLegDummy RightUpLeg
    RightUpLeg RightLeg
    RightLeg RightFoot
    RightFoot RightToes
    SpineDummy Spine
    Spine Spine1
    Spine1 HEadDummy LeftShoulder1Dummy RightShoulderDummy
    HEadDummy HEad
    LeftShoulder1Dummy LeftShoulder1
    LeftShoulder1 LeftArm
    LeftArm LeftForeArm
    LeftForeArm LeftHand
    RightShoulderDummy RightShoulder
    RightShoulder RightArm
    RightArm RightForeArm
    RightForeArm RightHand
    LeftUpLegDummy LeftUpLeg
    LeftUpLeg LeftLeg
    LeftLeg LeftFoot
    LeftFoot LeftToes
  end

:SAMPLES-PER-SECOND 30
:FULLY-SPECIFIED
:DEGREES
16
root  -3.2558 40.4467 84.29 178.901 8.36067 -179.513
RightUpLeg  -0.50316 -0.844143 1.33059
RightLeg  4.91674 -2.53505 -0.324877
RightFoot  -3.20034 -0.0105943 0.159794
RightToes  -5.82073e-011 -3.18055e-015 -2.98177e-016
Spine  -1.8279 1.58385 -0.203211
Spine1  9.81017 1.37245 2.07716
HEad  -13.5337 1.75884 -0.563125
LeftShoulder1  -3.88251e-019 9.70628e-020 -3.87848e-018
LeftArm  -25.2231 53.2141 -71.6238
LeftForeArm  8.72189 -11.2854 -3.59295
LeftHand  -0.636871 -2.84864 9.6187
RightShoulder  7.94281 10.7135 37.1932
RightArm  10.5267 -41.3337 16.4252
RightForeArm  13.9092 16.985 -7.34239
RightHand  -1.17449 2.69502 -16.6096
LeftUpLeg  -0.401759 -3.66985 -2.31246
LeftLeg  5.47882 8.11144 4.97818
LeftFoot  -3.7895 0.167423 -2.18652
LeftToes  -3.44176e-011 4.05998e-011 -5.21293e-012
17
root  -3.2424 40.4304 84.2786 178.802 8.51654 -179.458
RightUpLeg  -0.665587 -0.714767 1.45629
RightLeg  5.47463 -2.48816 -0.598053
RightFoot  -3.58741 -0.0274634 0.380818
RightToes  -5.82073e-011 -3.18055e-015 -2.98177e-016
Spine  -1.66924 1.65481 -0.14377
Spine1  9.82573 1.42071 2.10197
HEad  -13.3658 1.87409 -0.707113
LeftShoulder1  -3.88251e-019 9.70628e-020 -3.87848e-018
LeftArm  -25.473 53.1441 -71.7957
LeftForeArm  8.83809 -11.1466 -3.56356
LeftHand  -0.642454 -3.09651 9.41603
RightShoulder  7.88494 10.6783 36.9865
RightArm  10.2772 -41.5415 16.739
RightForeArm  13.8759 17.0021 -7.41748
RightHand  -1.15218 2.56314 -16.5582
LeftUpLeg  -0.345337 -3.2343 -2.07552
LeftLeg  5.73775 7.78081 4.80122
LeftFoot  -4.11734 0.168379 -2.2878
LeftToes  -3.44176e-011 4.05998e-011 -5.21293e-012
18
root  -3.20448 40.4105 84.2462 178.659 8.38097 -179.367
RightUpLeg  -0.674001 -0.55226 1.65872
RightLeg  6.01705 -2.76113 -0.905731
RightFoot  -4.09561 -0.0394325 0.574569
RightToes  -5.82073e-011 -3.18055e-015 -2.98177e-016
Spine  -1.69815 1.59579 -0.272317
Spine1  10.165 1.28017 2.34054
HEad  -13.3521 1.93817 -0.817809
LeftShoulder1  -3.88251e-019 9.70628e-020 -3.87848e-018
LeftArm  -25.4165 53.1384 -71.8649
LeftForeArm  8.83279 -11.2959 -3.56179
LeftHand  -0.63215 -3.2241 9.12978
RightShoulder  7.88176 10.6756 36.9767
RightArm  10.4414 -41.5995 16.788
RightForeArm  13.4282 17.1568 -7.54958
RightHand  -1.11317 2.42276 -16.2844
LeftUpLeg  -0.281743 -2.87989 -1.7889
LeftLeg  6.08553 7.20818 4.72081
LeftFoot  -4.58206 0.19192 -2.74575
LeftToes  -3.44176e-011 4.05998e-011 -5.21293e-012
19
root  -3.14349 40.3915 84.199 178.536 8.13884 -179.297
RightUpLeg  -0.590363 -0.533048 1.79679
RightLeg  6.45421 -3.01662 -1.03834
RightFoot  -4.64635 -0.0436399 0.696169
RightToes  -5.82073e-011 -3.18055e-015 -2.98177e-016
Spine  -1.65972 1.44528 -0.531811
Spine1  10.3675 1.03283 2.65172
HEad  -13.3344 2.07152 -0.869676
LeftShoulder1  -3.88251e-019 9.70628e-020 -3.87848e-018
LeftArm  -25.2128 53.2863 -71.8049
LeftForeArm  8.85575 -11.545 -3.57361
LeftHand  -0.61816 -3.03055 9.14051
RightShoulder  7.93255 10.7055 37.1606
RightArm  10.9574 -41.5935 16.5235
RightForeArm  13.0203 17.3778 -7.70206
RightHand  -1.11264 2.53162 -16.0609
LeftUpLeg  -0.218763 -2.75404 -1.58509
LeftLeg  6.38591 6.79364 4.79328
LeftFoot  -4.91675 0.220028 -3.26141
LeftToes  -3.44176e-011 4.05998e-011 -5.21293e-012
20
root  -3.06584 40.3728 84.1474 178.498 8.23669 -179.297
RightUpLeg  -0.664101 -0.612579 1.84298
RightLeg  6.93234 -2.84702 -1.05871
RightFoot  -5.15756 -0.0445451 0.765867
RightToes  -5.82073e-011 -3.18055e-015 -2.98177e-016
Spine  -1.47481 1.36011 -0.807957
Spine1  10.2435 0.868404 2.9403
HEad  -13.1892 2.35797 -1.00201
LeftShoulder1  -3.88251e-019 9.70628e-020 -3.87848e-018
LeftArm  -25.0696 53.5998 -71.6677
LeftForeArm  8.94853 -11.7127 -3.59502
LeftHand  -0.607283 -2.69457 9.35678
RightShoulder  7.95695 10.7228 37.2423
RightArm  11.3975 -41.6806 16.3177
RightForeArm  12.9674 17.5258 -7.80046
RightHand  -1.14839 2.75713 -16.126
LeftUpLeg  -0.112365 -2.69602 -1.48154
LeftLeg  6.50697 6.82189 4.87029
LeftFoot  -5.08967 0.228833 -3.46545
LeftToes  -3.44176e-011 4.05998e-011 -5.21293e-012
21
root  -2.96959 40.355 84.0861 178.551 8.73349 -179.349
RightUpLeg  -0.933342 -0.614699 1.91475
RightLeg  7.47663 -2.35094 -1.15517
RightFoot  -5.56509 -0.0424339 0.751592
RightToes  -5.82073e-011 -3.18055e-015 -2.98177e-016
Spine  -1.38865 1.36992 -1.04716
Spine1  10.1303 0.816534 3.19352
HEad  -12.9133 2.71139 -1.27879
LeftShoulder1  -3.88251e-019 9.70628e-020 -3.87848e-018
LeftArm  -24.9764 53.9883 -71.4661
LeftForeArm  8.97195 -11.7936 -3.622
LeftHand  -0.6038 -2.56718 9.45456
RightShoulder  7.92607 10.7101 37.1184
RightArm  11.5039 -41.8596 16.3925
RightForeArm  13.1582 17.5725 -7.84316
RightHand  -1.17933 2.89965 -16.2799
LeftUpLeg  0.0550404 -2.55661 -1.39143
LeftLeg  6.46332 7.12935 4.85766
LeftFoot  -5.26596 0.232278 -3.60225
LeftToes  -3.44176e-011 4.05998e-011 -5.21293e-012
22
root  -2.84632 40.3413 84.003 178.672 9.25948 -179.372
RightUpLeg  -1.16107 -0.492336 2.11583
RightLeg  7.86226 -1.94999 -1.30477
RightFoot  -5.88391 -0.0315668 0.624408
RightToes  -5.82073e-011 -3.18055e-015 -2.98177e-016
Spine  -1.55632 1.35506 -1.22182
Spine1  10.2781 0.751748 3.39586
HEad  -12.5166 3.04493 -1.58092
LeftShoulder1  -3.88251e-019 9.70628e-020 -3.87848e-018
LeftArm  -24.8518 54.343 -71.1805
LeftForeArm  8.91373 -11.7751 -3.62606
LeftHand  -0.613525 -2.68796 9.45886
RightShoulder  7.90033 10.6967 37.0211
RightArm  11.4887 -42.025 16.4812
RightForeArm  13.2697 17.6195 -7.9138
RightHand  -1.18827 2.98046 -16.2488
LeftUpLeg  0.189431 -2.42565 -1.23279
LeftLeg  6.44667 7.45116 4.87891
LeftFoot  -5.42216 0.25189 -3.97312
LeftToes  -3.44176e-011 4.05998e-011 -5.21293e-012
23
root  -2.69503 40.3263 83.8954 178.84 9.61786 -179.3
RightUpLeg  -1.22758 -0.31592 2.4323
RightLeg  8.04278 -1.78548 -1.35654
RightFoot  -6.22546 -0.0181429 0.460129
RightToes  -5.82073e-011 -3.18055e-015 -2.98177e-016
Spine  -1.82407 1.26481 -1.27669
Spine1  10.5162 0.620924 3.55589
HEad  -12.0363 3.40274 -1.84333
LeftShoulder1  -3.88251e-019 9.70628e-020 -3.87848e-018
LeftArm  -24.6776 54.6381 -70.8302
LeftForeArm  8.94364 -11.593 -3.60693
LeftHand  -0.627451 -2.81685 9.51593
RightShoulder  7.91055 10.6977 37.0694
RightArm  11.6568 -42.155 16.299
RightForeArm  13.1816 17.7288 -8.0364
RightHand  -1.18895 3.04743 -16.1296
LeftUpLeg  0.196962 -2.38378 -0.97593
LeftLeg  6.63592 7.73685 5.04918
LeftFoot  -5.48636 0.269641 -4.27574
LeftToes  -3.44176e-011 4.05998e-011 -5.21293e-012
